Clean Scene Releases and no fakes    http://bitxtre.me/


-------------------------------------------------------------------------------------
                                   nfo




*********** ****    ****      ***      ******** *********** ****    *** **********

         *+*     +*+*+* *+*+*+   *+* *+*   *+*    *+*    *+*     *+*+*   *+* *+*        

         +*+     +*+ +*+*+ +*+  +*+   +*+  +*+           +*+     *+*+*+  +*+ +*+        

         +$+     +$+  +*+  +$+ +$++*++$++* *$*           +$+     +$+ +*+ +$+ +$++*++$  

         +$+     +$+       +$+ +$+     +$+ +$+   +$+$    +$+     +$+  +$+$+$ +$+        

         $+$     $+$       $+$ $+$     $+$ $+$    $+$    $+$     $+$   $+$+$ $+$        

     $$$$$$$$$$$ $$$       $$$ $$$     $$$  $$$$$$$$ $$$$$$$$$$$ $$$    $$$$ $$$$$$$$$$    

                                             







                         Another Fine Release Brought to you from - IMAGiNE                  

                                               



********************************************************************************************************************                                

                       Ticking Clock 2011 SCR AC3 XViD - IMAGiNE

********************************************************************************************************************





Ripper ...........: IMAGiNE                                        IMDB Rating.......:N/A                            

Video Codec.......: XVID                                         Release Date......:03/12/10

Audio Codec.......:AC3                                           Theatre Date......:04/01/11

Audio Bitrate.....:192                                              Runtime.......:1h 41mn

Subtitles.........:NIL                                                 Language..........:ENGLISH

Resolution...... 720 x 400                                      IMDb URL.......... http://www.imdb.com/title/tt1519664/





DETAILS:



Video

ID                               : 0

Format                           : MPEG-4 Visual

Format profile                   : Advanced Simple@L5

Format settings, BVOP            : Yes

Format settings, QPel            : No

Format settings, GMC             : No warppoints

Format settings, Matrix          : Default (H.263)

Muxing mode                      : Packed bitstream

Codec ID                         : XVID

Codec ID/Hint                    : XviD

Duration                         : 1h 41mn

Bit rate                         : 1 739 Kbps

Width                            : 720 pixels

Height                           : 400 pixels

Display aspect ratio             : 16/9

Frame rate                       : 23.976 fps

Resolution                       : 24 bits

Colorimetry                      : 4:2:0

Scan type                        : Progressive

Bits/(Pixel*Frame)               : 0.252

Stream size                      : 1.23 GiB (90%)

Writing library                  : XviD 1.1.2 (UTC 2006-11-01)



Audio

ID                               : 1

Format                           : AC-3

Format/Info                      : Audio Coding 3

Codec ID                         : 2000

Duration                         : 1h 41mn

Bit rate mode                    : Constant

Bit rate                         : 192 Kbps

Channel(s)                       : 2 channels

Channel positions                : L R

Sampling rate                    : 48.0 KHz

Stream size                      : 139 MiB (10%)

Alignment                        : Aligned on interleaves

Interleave, duration             : 42 ms (1.00 video frame)

Interleave, preload duration     : 512 ms





SOURCES:



VIDEO:Ticking Clock VOBS ......Thanks transformerz
AUDIO:Ticking Clock VOBS ......Thanks transformerz  


NOTES:



IMAGiNE bringing you another release..........Ticking clock 2011



Here we go with a decent screener of this.The vobs were given to us by a good m8 so thanks transformerz.

The source itself was not too bad but had some weird colouring,scrolling text every xx amount of mins (about 20) followed by

a few seconds of black and white video.

Also rthe source had some strange interlacing going on....

Work done....basically made a small script to rip it,fix the white balance,sharpness,contrast,brightness,rgb eq etc......

But will say even after fixing the ivtc,there is still some small interlace issues

Audio was mint and was just remuxed to our encode.



Enjoy this early release 